<svg width="428.45831298828125px" height="119.84000549316406px" xmlns="http://www.w3.org/2000/svg" viewBox="35.770843505859375 15.079997253417972 428.45831298828125 119.84000549316406" style="background: rgb(0, 51, 51);" preserveAspectRatio="xMidYMid"><defs><filter id="editing-lego" x="-100%" y="-100%" width="300%" height="300%"><feFlood flood-color="#000" result="f1"></feFlood><feFlood flood-color="#ffff00" result="f2"></feFlood><feMorphology operator="dilate" radius="3" in="SourceAlpha"></feMorphology><feConvolveMatrix order="5,5" divisor="1" result="cm1" kernelMatrix="0 1 1 1 0  1 0 0 0 1  1 0 0 0 1  1 0 0 0 1  0 1 1 1 0"></feConvolveMatrix><feComposite operator="in" in="f1" in2="cm1" result="c1"></feComposite><feMorphology operator="dilate" radius="3"></feMorphology><feConvolveMatrix order="5,5" divisor="1" result="cm2" kernelMatrix="0 1 1 1 0  1 0 0 0 1  1 0 0 0 1  1 0 0 0 1  0 1 1 1 0"></feConvolveMatrix><feComposite operator="in" in="f2" in2="cm2" result="c2"></feComposite><feMerge><feMergeNode in="c2"></feMergeNode><feMergeNode in="c1"></feMergeNode><feMergeNode in="SourceGraphic"></feMergeNode></feMerge></filter></defs><g filter="url(#editing-lego)"><g transform="translate(102.79645228385925, 93.97500038146973)"><path d="M35.45-22.90L30.55-5.90L30.55-5.90Q30.35-5.25 30.35-4.60L30.35-4.60L30.35-4.60Q30.35-4.05 30.50-3.68L30.50-3.68L30.50-3.68Q30.65-3.30 30.83-3.08L30.83-3.08L30.83-3.08Q31-2.85 31.05-2.75L31.05-2.75L31.05-2.75Q31.55-2.25 31.55-1.75L31.55-1.75L31.55-1.75Q31.55-1.65 31.45-1.25L31.45-1.25L31.45-1.25Q31.25-0.55 30.58-0.28L30.58-0.28L30.58-0.28Q29.90 0 28.50 0L28.50 0L16.65 0L16.65 0Q15.60 0 15.03-0.35L15.03-0.35L15.03-0.35Q14.45-0.70 14.45-1.30L14.45-1.30L14.45-1.30Q14.45-1.60 14.60-1.95L14.60-1.95L14.60-1.95Q14.75-2.35 15.03-2.58L15.03-2.58L15.03-2.58Q15.30-2.80 15.80-3.10L15.80-3.10L15.80-3.10Q16.60-3.55 17.10-4.10L17.10-4.10L17.10-4.10Q17.60-4.65 17.95-5.90L17.95-5.90L19.25-10.20L11.45-10.20L10.10-7.35L10.10-7.35Q9.25-5.50 9.25-4.45L9.25-4.45L9.25-4.45Q9.25-3.85 9.45-3.48L9.45-3.48L9.45-3.48Q9.65-3.10 10.05-2.70L10.05-2.70L10.05-2.70Q10.40-2.30 10.53-2.02L10.53-2.02L10.53-2.02Q10.65-1.75 10.55-1.30L10.55-1.30L10.55-1.30Q10.35-0.55 9.73-0.28L9.73-0.28L9.73-0.28Q9.10 0 7.75 0L7.75 0L0.30 0L0.30 0Q-0.85 0-1.45-0.43L-1.45-0.43L-1.45-0.43Q-2.05-0.85-2.05-1.55L-2.05-1.55L-2.05-1.55Q-2.05-2.35-1.48-2.83L-1.48-2.83L-1.48-2.83Q-0.90-3.30 0.25-3.85L0.25-3.85L0.25-3.85Q1.75-4.60 2.65-5.33L2.65-5.33L2.65-5.33Q3.55-6.05 4.20-7.35L4.20-7.35L13.10-25.80L13.10-25.80Q15.15-30.10 17.93-32.02L17.93-32.02L17.93-32.02Q20.70-33.95 25.25-33.95L25.25-33.95L25.25-33.95Q30.35-33.95 33.15-31.88L33.15-31.88L33.15-31.88Q35.95-29.80 35.95-26.10L35.95-26.10L35.95-26.10Q35.95-24.55 35.45-22.90L35.45-22.90ZM13.75-15.20L20.75-15.20L23.40-24L23.40-24Q23.60-24.60 23.60-25.25L23.60-25.25L23.60-25.25Q23.60-26.20 23.08-26.68L23.08-26.68L23.08-26.68Q22.55-27.15 21.60-27.15L21.60-27.15L21.60-27.15Q20.40-27.15 19.55-26.45L19.55-26.45L19.55-26.45Q18.70-25.75 17.85-23.95L17.85-23.95L13.75-15.20ZM50.85-36.95L50.85-36.95Q53.75-36.95 55.13-35.85L55.13-35.85L55.13-35.85Q56.50-34.75 56.50-32.85L56.50-32.85L56.50-32.85Q56.50-31.75 56.15-30.70L56.15-30.70L48.30-5.20L48.30-5.20Q48.15-4.60 48.15-4.15L48.15-4.15L48.15-4.15Q48.15-3.50 48.40-3.13L48.40-3.13L48.40-3.13Q48.65-2.75 49.10-2.40L49.10-2.40L49.10-2.40Q49.45-2.05 49.60-1.83L49.60-1.83L49.60-1.83Q49.75-1.60 49.65-1.25L49.65-1.25L49.65-1.25Q49.40-0.60 48.65-0.30L48.65-0.30L48.65-0.30Q47.90 0 46.35 0L46.35 0L34.95 0L34.95 0Q33.65 0 33.05-0.43L33.05-0.43L33.05-0.43Q32.45-0.85 32.65-1.55L32.65-1.55L32.65-1.55Q32.85-2.15 33.70-2.60L33.70-2.60L33.70-2.60Q34.45-3 34.95-3.55L34.95-3.55L34.95-3.55Q35.45-4.10 35.80-5.30L35.80-5.30L43.40-30.25L43.40-30.25Q43.55-30.70 43.55-31L43.55-31L43.55-31Q43.55-31.55 43.27-31.90L43.27-31.90L43.27-31.90Q43-32.25 42.55-32.60L42.55-32.60L42.55-32.60Q42.05-33 41.83-33.30L41.83-33.30L41.83-33.30Q41.60-33.60 41.75-34.10L41.75-34.10L41.75-34.10Q42.05-35.25 44.90-36.10L44.90-36.10L44.90-36.10Q47.75-36.95 50.85-36.95L50.85-36.95ZM69.15-36.95L69.15-36.95Q72.05-36.95 73.43-35.85L73.43-35.85L73.43-35.85Q74.80-34.75 74.80-32.85L74.80-32.85L74.80-32.85Q74.80-31.75 74.45-30.70L74.45-30.70L66.60-5.20L66.60-5.20Q66.45-4.60 66.45-4.15L66.45-4.15L66.45-4.15Q66.45-3.50 66.70-3.13L66.70-3.13L66.70-3.13Q66.95-2.75 67.40-2.40L67.40-2.40L67.40-2.40Q67.75-2.05 67.90-1.83L67.90-1.83L67.90-1.83Q68.05-1.60 67.95-1.25L67.95-1.25L67.95-1.25Q67.70-0.60 66.95-0.30L66.95-0.30L66.95-0.30Q66.20 0 64.65 0L64.65 0L53.25 0L53.25 0Q51.95 0 51.35-0.43L51.35-0.43L51.35-0.43Q50.75-0.85 50.95-1.55L50.95-1.55L50.95-1.55Q51.15-2.15 52-2.60L52-2.60L52-2.60Q52.75-3 53.25-3.55L53.25-3.55L53.25-3.55Q53.75-4.10 54.10-5.30L54.10-5.30L61.70-30.25L61.70-30.25Q61.85-30.70 61.85-31L61.85-31L61.85-31Q61.85-31.55 61.58-31.90L61.58-31.90L61.58-31.90Q61.30-32.25 60.85-32.60L60.85-32.60L60.85-32.60Q60.35-33 60.13-33.30L60.13-33.30L60.13-33.30Q59.90-33.60 60.05-34.10L60.05-34.10L60.05-34.10Q60.35-35.25 63.20-36.10L63.20-36.10L63.20-36.10Q66.05-36.95 69.15-36.95L69.15-36.95ZM99.65-26.70L99.65-26.70Q102.70-26.70 105-25.83L105-25.83L105-25.83Q107.30-24.95 108.58-23.43L108.58-23.43L108.58-23.43Q109.85-21.90 109.85-20.05L109.85-20.05L109.85-20.05Q109.85-18.05 108.47-16.75L108.47-16.75L108.47-16.75Q107.10-15.45 104.75-15.45L104.75-15.45L104.75-15.45Q102.35-15.45 101-16.68L101-16.68L101-16.68Q99.65-17.90 99.65-20L99.65-20L99.65-20Q99.65-21 99.95-22.10L99.95-22.10L99.95-22.10Q97.85-21.55 96.22-19.93L96.22-19.93L96.22-19.93Q94.60-18.30 94.05-15.65L94.05-15.65L94.05-15.65Q93.75-14.15 93.75-12.95L93.75-12.95L93.75-12.95Q93.75-10.25 95.25-8.85L95.25-8.85L95.25-8.85Q96.75-7.45 99.55-7.45L99.55-7.45L99.55-7.45Q101.15-7.45 102.30-7.78L102.30-7.78L102.30-7.78Q103.45-8.10 104.65-8.65L104.65-8.65L104.65-8.65Q105.65-9.15 106.10-9.15L106.10-9.15L106.10-9.15Q106.40-9.15 106.50-9.03L106.50-9.03L106.50-9.03Q106.60-8.90 106.60-8.50L106.60-8.50L106.60-8.50Q106.65-6.65 105.08-4.63L105.08-4.63L105.08-4.63Q103.50-2.60 100.72-1.23L100.72-1.23L100.72-1.23Q97.95 0.15 94.50 0.15L94.50 0.15L94.50 0.15Q90.90 0.15 88.13-1.18L88.13-1.18L88.13-1.18Q85.35-2.50 83.83-4.98L83.83-4.98L83.83-4.98Q82.30-7.45 82.30-10.75L82.30-10.75L82.30-10.75Q82.30-12.30 82.70-14.20L82.70-14.20L82.70-14.20Q84.05-20.40 88.67-23.55L88.67-23.55L88.67-23.55Q93.30-26.70 99.65-26.70L99.65-26.70ZM124.55-36.95L124.55-36.95Q127.45-36.95 128.82-35.85L128.82-35.85L128.82-35.85Q130.20-34.75 130.20-32.85L130.20-32.85L130.20-32.85Q130.20-31.75 129.85-30.70L129.85-30.70L122-5.20L122-5.20Q121.85-4.60 121.85-4.15L121.85-4.15L121.85-4.15Q121.85-3.50 122.10-3.13L122.10-3.13L122.10-3.13Q122.35-2.75 122.80-2.40L122.80-2.40L122.80-2.40Q123.15-2.05 123.30-1.83L123.30-1.83L123.30-1.83Q123.45-1.60 123.35-1.25L123.35-1.25L123.35-1.25Q123.10-0.60 122.35-0.30L122.35-0.30L122.35-0.30Q121.60 0 120.05 0L120.05 0L108.65 0L108.65 0Q107.35 0 106.75-0.43L106.75-0.43L106.75-0.43Q106.15-0.85 106.35-1.55L106.35-1.55L106.35-1.55Q106.55-2.15 107.40-2.60L107.40-2.60L107.40-2.60Q108.15-3 108.65-3.55L108.65-3.55L108.65-3.55Q109.15-4.10 109.50-5.30L109.50-5.30L117.10-30.25L117.10-30.25Q117.25-30.70 117.25-31L117.25-31L117.25-31Q117.25-31.55 116.97-31.90L116.97-31.90L116.97-31.90Q116.70-32.25 116.25-32.60L116.25-32.60L116.25-32.60Q115.75-33 115.52-33.30L115.52-33.30L115.52-33.30Q115.30-33.60 115.45-34.10L115.45-34.10L115.45-34.10Q115.75-35.25 118.60-36.10L118.60-36.10L118.60-36.10Q121.45-36.95 124.55-36.95L124.55-36.95ZM143.85-26.70L143.85-26.70Q150.20-26.70 153.05-24.68L153.05-24.68L153.05-24.68Q155.90-22.65 155.90-19.50L155.90-19.50L155.90-19.50Q155.90-18.55 155.70-17.75L155.70-17.75L155.70-17.75Q154.95-14.45 151.52-13.03L151.52-13.03L151.52-13.03Q148.10-11.60 143.45-11.60L143.45-11.60L143.45-11.60Q141.10-11.60 139.05-11.90L139.05-11.90L139.05-11.90Q139-9.30 140.45-8.25L140.45-8.25L140.45-8.25Q141.90-7.20 144.50-7.20L144.50-7.20L144.50-7.20Q145.70-7.20 146.80-7.48L146.80-7.48L146.80-7.48Q147.90-7.75 149.60-8.30L149.60-8.30L149.60-8.30Q151-8.80 151.50-8.80L151.50-8.80L151.50-8.80Q152.05-8.80 152.05-8.15L152.05-8.15L152.05-8.15Q152.10-6.40 150.75-4.48L150.75-4.48L150.75-4.48Q149.40-2.55 146.75-1.20L146.75-1.20L146.75-1.20Q144.10 0.15 140.35 0.15L140.35 0.15L140.35 0.15Q134.80 0.15 131.25-2.65L131.25-2.65L131.25-2.65Q127.70-5.45 127.70-10.80L127.70-10.80L127.70-10.80Q127.70-12.30 128.10-14.30L128.10-14.30L128.10-14.30Q129.35-20.45 133.57-23.58L133.57-23.58L133.57-23.58Q137.80-26.70 143.85-26.70L143.85-26.70ZM139.40-14.90L139.40-14.90Q139.60-14.85 139.95-14.85L139.95-14.85L139.95-14.85Q142.05-14.85 143.15-16.80L143.15-16.80L143.15-16.80Q144.25-18.75 144.20-21.15L144.20-21.15L144.20-21.15Q144.15-22.55 143.40-22.55L143.40-22.55L143.40-22.55Q142.85-22.55 142.10-21.68L142.10-21.68L142.10-21.68Q141.35-20.80 140.63-19.05L140.63-19.05L140.63-19.05Q139.90-17.30 139.40-14.90L139.40-14.90ZM172.75-26.45L172.75-26.45Q178.50-26.45 181.95-24.33L181.95-24.33L181.95-24.33Q185.40-22.20 185.40-17.85L185.40-17.85L185.40-17.85Q185.40-16.20 184.80-14.10L184.80-14.10L182.75-7.20L182.75-7.20Q182.70-7 182.70-6.70L182.70-6.70L182.70-6.70Q182.70-5.90 183.35-5.90L183.35-5.90L183.35-5.90Q183.95-5.90 184.37-6.43L184.37-6.43L184.37-6.43Q184.80-6.95 184.95-6.95L184.95-6.95L184.95-6.95Q185.20-6.95 185.37-6.60L185.37-6.60L185.37-6.60Q185.55-6.25 185.55-5.80L185.55-5.80L185.55-5.80Q185.60-4.45 184.52-3.05L184.52-3.05L184.52-3.05Q183.45-1.65 181.65-0.75L181.65-0.75L181.65-0.75Q179.85 0.15 177.70 0.15L177.70 0.15L177.70 0.15Q175.10 0.15 173.25-0.80L173.25-0.80L173.25-0.80Q171.40-1.75 170.70-3.60L170.70-3.60L170.70-3.60Q169.20-1.80 167.15-0.83L167.15-0.83L167.15-0.83Q165.10 0.15 162.75 0.15L162.75 0.15L162.75 0.15Q160.10 0.15 158.30-0.88L158.30-0.88L158.30-0.88Q156.50-1.90 155.62-3.53L155.62-3.53L155.62-3.53Q154.75-5.15 154.75-6.95L154.75-6.95L154.75-6.95Q154.75-7.75 154.90-8.50L154.90-8.50L154.90-8.50Q155.70-11.95 158.37-13.70L158.37-13.70L158.37-13.70Q161.05-15.45 164.75-15.45L164.75-15.45L164.75-15.45Q168.90-15.45 172.90-14.15L172.90-14.15L174.15-17.45L174.15-17.45Q174.80-19.55 174.80-20.70L174.80-20.70L174.80-20.70Q174.75-21.90 174.00-22.50L174.00-22.50L174.00-22.50Q173.25-23.10 171.70-23.10L171.70-23.10L171.70-23.10Q172.00-22.30 172.00-21.45L172.00-21.45L172.00-21.45Q172.00-19.60 170.60-18.25L170.60-18.25L170.60-18.25Q169.20-16.90 166.60-16.90L166.60-16.90L166.60-16.90Q164.15-16.90 162.77-17.98L162.77-17.98L162.77-17.98Q161.40-19.05 161.40-20.65L161.40-20.65L161.40-20.65Q161.40-23.15 164.20-24.80L164.20-24.80L164.20-24.80Q167.00-26.45 172.75-26.45L172.75-26.45ZM169.95-11.30L169.95-11.30Q168.55-11.30 167.67-10.23L167.67-10.23L167.67-10.23Q166.80-9.15 166.80-7.90L166.80-7.90L166.80-7.90Q166.80-7.10 167.17-6.60L167.17-6.60L167.17-6.60Q167.55-6.10 168.25-6.10L168.25-6.10L168.25-6.10Q168.90-6.10 169.67-6.63L169.67-6.63L169.67-6.63Q170.45-7.15 170.80-8.20L170.80-8.20L171.85-11.15L171.85-11.15Q171.00-11.30 169.95-11.30L169.95-11.30ZM212.15-26.45L212.15-26.45Q214.95-26.45 216.62-24.75L216.62-24.75L216.62-24.75Q218.30-23.05 218.30-20.55L218.30-20.55L218.30-20.55Q218.30-19.60 218.10-18.80L218.10-18.80L218.10-18.80Q217.60-16.75 216.20-15.65L216.20-15.65L216.20-15.65Q214.80-14.55 212.85-14.55L212.85-14.55L212.85-14.55Q210.95-14.55 209.97-15.45L209.97-15.45L209.97-15.45Q209.00-16.35 208.25-17.85L208.25-17.85L208.25-17.85Q207.85-18.70 207.50-19.10L207.50-19.10L207.50-19.10Q207.15-19.50 206.70-19.50L206.70-19.50L206.70-19.50Q206.20-19.50 205.82-19.10L205.82-19.10L205.82-19.10Q205.45-18.70 205.15-17.70L205.15-17.70L201.30-5.20L201.30-5.20Q201.20-4.95 201.20-4.45L201.20-4.45L201.20-4.45Q201.20-3.80 201.57-3.38L201.57-3.38L201.57-3.38Q201.95-2.95 202.60-2.55L202.60-2.55L202.60-2.55Q203.20-2.15 203.40-1.90L203.40-1.90L203.40-1.90Q203.60-1.65 203.55-1.25L203.55-1.25L203.55-1.25Q203.45-0.60 202.82-0.30L202.82-0.30L202.82-0.30Q202.20 0 200.70 0L200.70 0L187.90 0L187.90 0Q186.60 0 186.02-0.43L186.02-0.43L186.02-0.43Q185.45-0.85 185.60-1.55L185.60-1.55L185.60-1.55Q185.80-2.15 186.65-2.60L186.65-2.60L186.65-2.60Q187.40-3 187.90-3.55L187.90-3.55L187.90-3.55Q188.40-4.10 188.75-5.30L188.75-5.30L193.20-19.75L193.20-19.75Q193.30-20 193.30-20.45L193.30-20.45L193.30-20.45Q193.30-21 193.07-21.30L193.07-21.30L193.07-21.30Q192.85-21.60 192.35-22.05L192.35-22.05L192.35-22.05Q191.85-22.45 191.65-22.75L191.65-22.75L191.65-22.75Q191.45-23.05 191.60-23.55L191.60-23.55L191.60-23.55Q191.90-24.70 194.75-25.58L194.75-25.58L194.75-25.58Q197.60-26.45 200.70-26.45L200.70-26.45L200.70-26.45Q202.75-26.45 204.10-25.53L204.10-25.53L204.10-25.53Q205.45-24.60 205.85-22.90L205.85-22.90L205.85-22.90Q208.25-26.45 212.15-26.45L212.15-26.45ZM239.55-26.45L239.55-26.45Q242.45-26.45 243.80-25.35L243.80-25.35L243.80-25.35Q245.15-24.25 245.15-22.35L245.15-22.35L245.15-22.35Q245.15-21.20 244.80-20.15L244.80-20.15L240.20-5.20L240.20-5.20Q240.05-4.60 240.05-4.15L240.05-4.15L240.05-4.15Q240.05-3.50 240.30-3.13L240.30-3.13L240.30-3.13Q240.55-2.75 241.00-2.40L241.00-2.40L241.00-2.40Q241.35-2.05 241.50-1.83L241.50-1.83L241.50-1.83Q241.65-1.60 241.55-1.25L241.55-1.25L241.55-1.25Q241.30-0.60 240.55-0.30L240.55-0.30L240.55-0.30Q239.80 0 238.25 0L238.25 0L226.85 0L226.85 0Q225.55 0 224.95-0.43L224.95-0.43L224.95-0.43Q224.35-0.85 224.55-1.55L224.55-1.55L224.55-1.55Q224.75-2.15 225.60-2.60L225.60-2.60L225.60-2.60Q226.35-3 226.85-3.55L226.85-3.55L226.85-3.55Q227.35-4.10 227.70-5.30L227.70-5.30L232.05-19.75L232.05-19.75Q232.20-20.20 232.20-20.50L232.20-20.50L232.20-20.50Q232.20-21.05 231.95-21.38L231.95-21.38L231.95-21.38Q231.70-21.70 231.20-22.05L231.20-22.05L231.20-22.05Q230.70-22.45 230.50-22.75L230.50-22.75L230.50-22.75Q230.30-23.05 230.45-23.55L230.45-23.55L230.45-23.55Q230.75-24.70 233.60-25.58L233.60-25.58L233.60-25.58Q236.45-26.45 239.55-26.45L239.55-26.45ZM242.90-37.50L242.90-37.50Q244.85-37.50 246.15-36.23L246.15-36.23L246.15-36.23Q247.45-34.95 247.45-33.10L247.45-33.10L247.45-33.10Q247.45-31.80 246.77-30.55L246.77-30.55L246.77-30.55Q246.10-29.30 244.87-28.53L244.87-28.53L244.87-28.53Q243.65-27.75 242.15-27.75L242.15-27.75L242.15-27.75Q240.25-27.75 238.97-29.03L238.97-29.03L238.97-29.03Q237.70-30.30 237.65-32.20L237.65-32.20L237.65-32.20Q237.65-33.45 238.30-34.68L238.30-34.68L238.30-34.68Q238.95-35.90 240.15-36.70L240.15-36.70L240.15-36.70Q241.35-37.50 242.90-37.50L242.90-37.50ZM267.20-25.80L267.20-25.80Q268.15-25.80 268.67-25.40L268.67-25.40L268.67-25.40Q269.20-25 269.20-24.30L269.20-24.30L269.20-24.30Q269.20-24.10 269.10-23.60L269.10-23.60L269.10-23.60Q268.45-21.40 266.10-21.40L266.10-21.40L263.20-21.40L259.45-9.05L259.45-9.05Q259.20-8.30 259.20-7.50L259.20-7.50L259.20-7.50Q259.20-6.60 259.70-6.25L259.70-6.25L259.70-6.25Q260.20-5.90 261.10-5.90L261.10-5.90L261.10-5.90Q261.90-5.90 263.10-6.10L263.10-6.10L263.10-6.10Q263.70-6.25 264.15-6.25L264.15-6.25L264.15-6.25Q264.50-6.25 264.67-6.03L264.67-6.03L264.67-6.03Q264.85-5.80 264.85-5.45L264.85-5.45L264.85-5.45Q264.90-4.45 263.37-3.03L263.37-3.03L263.37-3.03Q261.85-1.60 259.25-0.58L259.25-0.58L259.25-0.58Q256.65 0.45 253.50 0.45L253.50 0.45L253.50 0.45Q250.10 0.45 248.05-1.10L248.05-1.10L248.05-1.10Q246.00-2.65 246.00-5.35L246.00-5.35L246.00-5.35Q246.00-6.60 246.40-7.75L246.40-7.75L249.60-17.65L249.60-17.65Q249.85-18.50 249.85-19L249.85-19L249.85-19Q249.85-20 249.37-20.70L249.37-20.70L249.37-20.70Q248.90-21.40 248.05-22.15L248.05-22.15L248.05-22.15Q247.30-22.85 247.00-23.33L247.00-23.33L247.00-23.33Q246.70-23.80 246.85-24.45L246.85-24.45L246.85-24.45Q247.05-25.10 247.70-25.45L247.70-25.45L247.70-25.45Q248.35-25.80 249.75-25.80L249.75-25.80L252.55-25.80L255.70-28.95L255.70-28.95Q257.35-30.60 258.72-31.25L258.72-31.25L258.72-31.25Q260.10-31.90 262.30-31.90L262.30-31.90L262.30-31.90Q265.45-31.90 265.45-29.50L265.45-29.50L265.45-29.50Q265.45-28.75 265.25-28.10L265.25-28.10L264.55-25.80L267.20-25.80ZM283.40-29.70L283.40-29.70Q283.75-37.15 290.95-37.15L290.95-37.15L290.95-37.15Q293.70-37.15 295.22-35.95L295.22-35.95L295.22-35.95Q296.75-34.75 296.75-32.60L296.75-32.60L296.75-32.60Q296.75-30.40 295.20-27.60L295.20-27.60L287.35-13.60L287.35-13.60Q286.75-12.45 286.12-11.98L286.12-11.98L286.12-11.98Q285.50-11.50 284.60-11.50L284.60-11.50L284.60-11.50Q282.65-11.50 282.75-13.85L282.75-13.85L283.40-29.70ZM283.25-10.10L283.25-10.10Q285.25-10.10 286.62-8.75L286.62-8.75L286.62-8.75Q288.00-7.40 288.00-5.45L288.00-5.45L288.00-5.45Q288.00-4.10 287.27-2.80L287.27-2.80L287.27-2.80Q286.55-1.50 285.27-0.68L285.27-0.68L285.27-0.68Q284.00 0.15 282.40 0.15L282.40 0.15L282.40 0.15Q280.45 0.15 279.10-1.20L279.10-1.20L279.10-1.20Q277.75-2.55 277.70-4.50L277.70-4.50L277.70-4.50Q277.70-5.85 278.40-7.15L278.40-7.15L278.40-7.15Q279.10-8.45 280.37-9.28L280.37-9.28L280.37-9.28Q281.65-10.10 283.25-10.10L283.25-10.10Z" fill="#fff"></path></g></g><style>text {
  font-size: 64px;
  font-family: Arial Black;
  dominant-baseline: central;
  text-anchor: middle;
}</style></svg>