<svg width="304.9100036621094px" height="90.08000183105469px" xmlns="http://www.w3.org/2000/svg" viewBox="97.54499816894531 29.959999084472656 304.9100036621094 90.08000183105469" style="background: rgb(255, 255, 255);" preserveAspectRatio="xMidYMid"><defs><filter id="editing-lego" x="-100%" y="-100%" width="300%" height="300%"><feFlood flood-color="#ffffff" result="f1"></feFlood><feFlood flood-color="#ffffff" result="f2"></feFlood><feMorphology operator="dilate" radius="3" in="SourceAlpha"></feMorphology><feConvolveMatrix order="5,5" divisor="1" result="cm1" kernelMatrix="0 1 1 1 0  1 0 0 0 1  1 0 0 0 1  1 0 0 0 1  0 1 1 1 0"></feConvolveMatrix><feComposite operator="in" in="f1" in2="cm1" result="c1"></feComposite><feMorphology operator="dilate" radius="3"></feMorphology><feConvolveMatrix order="5,5" divisor="1" result="cm2" kernelMatrix="0 1 1 1 0  1 0 0 0 1  1 0 0 0 1  1 0 0 0 1  0 1 1 1 0"></feConvolveMatrix><feComposite operator="in" in="f2" in2="cm2" result="c2"></feComposite><feMerge><feMergeNode in="c2"></feMergeNode><feMergeNode in="c1"></feMergeNode><feMergeNode in="SourceGraphic"></feMergeNode></feMerge></filter></defs><g filter="url(#editing-lego)"><g transform="translate(145.15001738071442, 95.34000015258789)"><path d="M27.32 4.32L28.28 9.92L28.28 9.92Q25.18 10.88 22.93 10.88L22.93 10.88L22.93 10.88Q21.19 10.88 19.91 10.40L19.91 10.40L19.91 10.40Q18.63 9.92 17.73 9.13L17.73 9.13L17.73 9.13Q16.84 8.34 16.27 7.30L16.27 7.30L16.27 7.30Q15.70 6.27 15.39 5.15L15.39 5.15L15.39 5.15Q15.08 4.02 14.96 2.90L14.96 2.90L14.96 2.90Q14.84 1.78 14.84 0.80L14.84 0.80L14.84 0.68L14.84 0.68Q11.17 0.45 8.56-0.81L8.56-0.81L8.56-0.81Q5.96-2.07 4.30-4.06L4.30-4.06L4.30-4.06Q2.64-6.05 1.88-8.64L1.88-8.64L1.88-8.64Q1.11-11.23 1.11-14.16L1.11-14.16L1.11-14.16Q1.11-17.25 2.05-19.97L2.05-19.97L2.05-19.97Q2.99-22.70 4.89-24.72L4.89-24.72L4.89-24.72Q6.80-26.74 9.69-27.91L9.69-27.91L9.69-27.91Q12.58-29.08 16.48-29.08L16.48-29.08L16.48-29.08Q19.53-29.08 21.87-28.54L21.87-28.54L21.87-28.54Q24.20-28.01 25.90-27.04L25.90-27.04L25.90-27.04Q27.60-26.07 28.74-24.72L28.74-24.72L28.74-24.72Q29.88-23.36 30.58-21.70L30.58-21.70L30.58-21.70Q31.27-20.04 31.55-18.13L31.55-18.13L31.55-18.13Q31.84-16.21 31.84-14.16L31.84-14.16L31.84-14.16Q31.84-11.23 31.04-8.62L31.04-8.62L31.04-8.62Q30.23-6.02 28.54-4.01L28.54-4.01L28.54-4.01Q26.86-2.01 24.21-0.77L24.21-0.77L24.21-0.77Q21.56 0.47 17.87 0.68L17.87 0.68L17.87 0.68Q18.01 1.54 18.27 2.19L18.27 2.19L18.27 2.19Q18.54 2.83 18.89 3.32L18.89 3.32L18.89 3.32Q19.24 3.81 19.64 4.14L19.64 4.14L19.64 4.14Q20.04 4.47 20.43 4.69L20.43 4.69L20.43 4.69Q21.37 5.20 22.44 5.27L22.44 5.27L22.44 5.27Q23.16 5.27 23.95 5.18L23.95 5.18L23.95 5.18Q24.63 5.08 25.50 4.89L25.50 4.89L25.50 4.89Q26.37 4.71 27.32 4.32L27.32 4.32ZM28.28-14.16L28.28-14.16L28.28-14.16Q28.28-15.80 27.76-17.26L27.76-17.26L27.76-17.26Q27.25-18.71 25.91-19.79L25.91-19.79L25.91-19.79Q24.57-20.88 22.29-21.50L22.29-21.50L22.29-21.50Q20-22.13 16.48-22.13L16.48-22.13L16.48-22.13Q13.48-22.13 11.26-21.50L11.26-21.50L11.26-21.50Q9.04-20.88 7.58-19.79L7.58-19.79L7.58-19.79Q6.11-18.71 5.40-17.26L5.40-17.26L5.40-17.26Q4.69-15.80 4.69-14.16L4.69-14.16L4.69-14.16Q4.69-12.52 5.34-11.08L5.34-11.08L5.34-11.08Q6.00-9.65 7.41-8.56L7.41-8.56L7.41-8.56Q8.83-7.48 11.06-6.86L11.06-6.86L11.06-6.86Q13.30-6.23 16.48-6.23L16.48-6.23L16.48-6.23Q19.61-6.23 21.84-6.86L21.84-6.86L21.84-6.86Q24.06-7.48 25.50-8.56L25.50-8.56L25.50-8.56Q26.93-9.65 27.61-11.08L27.61-11.08L27.61-11.08Q28.28-12.52 28.28-14.16ZM35.08-16.41L52.09-15.53L51.52-10.53L35.61-9.73L35.08-16.41ZM61.21-4.84L59.94-22.56L59.94-22.56Q58.54-22.17 57.30-21.76L57.30-21.76L57.30-21.76Q56.07-21.35 55.14-20.96L55.14-20.96L54.06-26.48L54.06-26.48Q56.15-27.13 58.13-27.62L58.13-27.62L58.13-27.62Q60.12-28.11 61.93-28.46L61.93-28.46L61.93-28.46Q63.75-28.81 65.37-29.04L65.37-29.04L65.37-29.04Q66.99-29.28 68.38-29.43L68.38-29.43L68.38-29.43Q71.60-29.79 74.34-29.80L74.34-29.80L74.34-29.80Q77.21-29.77 79.36-29.24L79.36-29.24L79.36-29.24Q81.50-28.71 82.94-27.75L82.94-27.75L82.94-27.75Q84.38-26.80 85.10-25.45L85.10-25.45L85.10-25.45Q85.82-24.10 85.82-22.44L85.82-22.44L85.82-22.44Q85.82-20.27 84.81-18.57L84.81-18.57L84.81-18.57Q83.81-16.88 82.15-15.58L82.15-15.58L82.15-15.58Q80.49-14.28 78.35-13.34L78.35-13.34L78.35-13.34Q76.21-12.40 73.95-11.76L73.95-11.76L73.95-11.76Q71.68-11.11 69.45-10.73L69.45-10.73L69.45-10.73Q67.23-10.35 65.41-10.16L65.41-10.16L65.45-4.80L72.05-4.77L72.05-0.27L55.49 0.76L55.37-4.88L61.21-4.84ZM73.22-25.08L73.22-25.08L73.22-25.08Q72.56-25.08 71.69-24.99L71.69-24.99L71.69-24.99Q70.82-24.90 69.80-24.76L69.80-24.76L69.80-24.76Q68.79-24.61 67.66-24.39L67.66-24.39L67.66-24.39Q66.52-24.18 65.33-23.93L65.33-23.93L65.41-13.36L65.41-13.36Q66.82-13.65 68.39-14.09L68.39-14.09L68.39-14.09Q69.96-14.53 71.49-15.12L71.49-15.12L71.49-15.12Q73.03-15.70 74.41-16.44L74.41-16.44L74.41-16.44Q75.80-17.17 76.82-18.05L76.82-18.05L76.82-18.05Q77.83-18.93 78.39-19.93L78.39-19.93L78.39-19.93Q78.95-20.94 78.81-22.07L78.81-22.07L78.81-22.07Q78.71-22.89 78.26-23.47L78.26-23.47L78.26-23.47Q77.81-24.04 77.08-24.40L77.08-24.40L77.08-24.40Q76.35-24.77 75.36-24.92L75.36-24.92L75.36-24.92Q74.38-25.08 73.22-25.08ZM105.70-2.83L110.37-2.25L109.38 1.37L99.67 0.64L99.67 0.64Q99.71 0.35 99.77 0L99.77 0L99.77 0Q99.82-0.35 99.88-0.66L99.88-0.66L99.88-0.66Q99.96-1.02 100.02-1.37L100.02-1.37L100.02-1.37Q98.32-0.43 96.58-0.04L96.58-0.04L96.58-0.04Q94.84 0.35 93.18 0.35L93.18 0.35L93.18 0.35Q91.97 0.35 90.66 0.14L90.66 0.14L90.66 0.14Q89.36-0.08 88.27-0.62L88.27-0.62L88.27-0.62Q87.19-1.15 86.48-2.04L86.48-2.04L86.48-2.04Q85.78-2.93 85.78-4.28L85.78-4.28L85.78-4.28Q85.78-5.70 86.43-6.74L86.43-6.74L86.43-6.74Q87.07-7.77 88.13-8.51L88.13-8.51L88.13-8.51Q89.18-9.24 90.52-9.69L90.52-9.69L90.52-9.69Q91.86-10.14 93.23-10.40L93.23-10.40L93.23-10.40Q94.61-10.66 95.92-10.75L95.92-10.75L95.92-10.75Q97.23-10.84 98.22-10.84L98.22-10.84L98.22-10.84Q99.28-10.84 100.12-10.79L100.12-10.79L100.12-10.79Q100.96-10.74 101.62-10.64L101.62-10.64L101.62-10.64Q101.86-12.07 101.86-13.36L101.86-13.36L101.86-13.36Q101.86-14.30 101.61-15.06L101.61-15.06L101.61-15.06Q101.37-15.82 100.77-16.33L100.77-16.33L100.77-16.33Q100.18-16.84 99.19-17.09L99.19-17.09L99.19-17.09Q98.20-17.34 96.74-17.29L96.74-17.29L96.74-17.29Q95.76-17.19 94.94-16.74L94.94-16.74L94.94-16.74Q94.59-16.54 94.23-16.25L94.23-16.25L94.23-16.25Q93.87-15.96 93.54-15.55L93.54-15.55L93.54-15.55Q93.22-15.14 92.97-14.58L92.97-14.58L92.97-14.58Q92.71-14.02 92.58-13.32L92.58-13.32L86.27-13.01L86.27-13.01Q86.41-14.36 86.95-15.40L86.95-15.40L86.95-15.40Q87.50-16.45 88.29-17.22L88.29-17.22L88.29-17.22Q89.08-17.99 90.04-18.54L90.04-18.54L90.04-18.54Q91.00-19.08 91.97-19.45L91.97-19.45L91.97-19.45Q94.28-20.29 97.11-20.49L97.11-20.49L97.11-20.49Q99.65-20.53 101.42-20.01L101.42-20.01L101.42-20.01Q103.18-19.49 104.34-18.62L104.34-18.62L104.34-18.62Q105.49-17.75 106.13-16.66L106.13-16.66L106.13-16.66Q106.78-15.57 107.07-14.48L107.07-14.48L107.07-14.48Q107.36-13.40 107.40-12.43L107.40-12.43L107.40-12.43Q107.44-11.46 107.42-10.84L107.42-10.84L107.42-10.84Q107.36-10.08 107.15-8.93L107.15-8.93L107.15-8.93Q106.97-7.93 106.63-6.43L106.63-6.43L106.63-6.43Q106.29-4.92 105.70-2.83L105.70-2.83ZM101.17-8.01L101.17-8.01L101.17-8.01Q100.72-8.05 100.20-8.07L100.20-8.07L100.20-8.07Q99.67-8.09 99.10-8.09L99.10-8.09L99.10-8.09Q98.61-8.09 97.90-8.05L97.90-8.05L97.90-8.05Q97.19-8.01 96.41-7.90L96.41-7.90L96.41-7.90Q95.63-7.79 94.84-7.60L94.84-7.60L94.84-7.60Q94.06-7.40 93.45-7.09L93.45-7.09L93.45-7.09Q92.83-6.78 92.44-6.33L92.44-6.33L92.44-6.33Q92.05-5.88 92.05-5.27L92.05-5.27L92.05-5.27Q92.05-4.80 92.33-4.38L92.33-4.38L92.33-4.38Q92.62-3.96 93.11-3.67L93.11-3.67L93.11-3.67Q93.59-3.38 94.25-3.25L94.25-3.25L94.25-3.25Q94.90-3.13 95.63-3.24L95.63-3.24L95.63-3.24Q97.09-3.52 98.39-3.92L98.39-3.92L98.39-3.92Q99.69-4.32 100.63-4.69L100.63-4.69L100.63-4.69Q100.78-5.51 100.92-6.35L100.92-6.35L100.92-6.35Q101.05-7.19 101.17-8.01ZM124.45 4.80L124.02 8.81L109.90 8.55L109.90 5.61L113.54 5.39L114.94-16.45L109.90-16.84L109.90-19.51L120.63-20.64L120.59-17.83L120.59-17.83Q121.11-18.30 121.80-18.73L121.80-18.73L121.80-18.73Q122.48-19.16 123.30-19.50L123.30-19.50L123.30-19.50Q124.12-19.84 125.10-20.04L125.10-20.04L125.10-20.04Q126.07-20.23 127.21-20.23L127.21-20.23L127.21-20.23Q128.03-20.23 129.04-20.05L129.04-20.05L129.04-20.05Q130.06-19.86 131.08-19.42L131.08-19.42L131.08-19.42Q132.11-18.98 133.08-18.24L133.08-18.24L133.08-18.24Q134.04-17.50 134.79-16.39L134.79-16.39L134.79-16.39Q135.55-15.27 136.01-13.75L136.01-13.75L136.01-13.75Q136.46-12.23 136.46-10.20L136.46-10.20L136.46-10.20Q136.46-8.13 136.01-6.55L136.01-6.55L136.01-6.55Q135.55-4.98 134.77-3.84L134.77-3.84L134.77-3.84Q133.98-2.70 132.95-1.93L132.95-1.93L132.95-1.93Q131.91-1.17 130.73-0.71L130.73-0.71L130.73-0.71Q129.55-0.25 128.30-0.07L128.30-0.07L128.30-0.07Q127.05 0.12 125.86 0.12L125.86 0.12L125.86 0.12Q124.90 0.12 123.93-0.06L123.93-0.06L123.93-0.06Q123.09-0.20 122.12-0.50L122.12-0.50L122.12-0.50Q121.15-0.80 120.33-1.37L120.33-1.37L120.25 5.04L124.45 4.80ZM124.90-2.75L124.90-2.75L124.90-2.75Q126.09-2.75 126.99-3.44L126.99-3.44L126.99-3.44Q127.89-4.12 128.48-5.20L128.48-5.20L128.48-5.20Q129.06-6.27 129.36-7.55L129.36-7.55L129.36-7.55Q129.65-8.83 129.65-10.04L129.65-10.04L129.65-10.04Q129.65-11.25 129.38-12.57L129.38-12.57L129.38-12.57Q129.12-13.89 128.54-14.98L128.54-14.98L128.54-14.98Q127.97-16.07 127.05-16.78L127.05-16.78L127.05-16.78Q126.13-17.48 124.82-17.48L124.82-17.48L124.82-17.48Q124.12-17.44 123.38-17.11L123.38-17.11L123.38-17.11Q122.75-16.84 121.98-16.22L121.98-16.22L121.98-16.22Q121.21-15.61 120.49-14.47L120.49-14.47L120.37-4.77L120.37-4.77Q121.19-4.00 122.00-3.60L122.00-3.60L122.00-3.60Q122.81-3.20 123.46-3.01L123.46-3.01L123.46-3.01Q124.22-2.79 124.90-2.75ZM155.66-8.09L161.54-6.68L161.54-6.68Q160.80-4.75 159.48-3.33L159.48-3.33L159.48-3.33Q158.16-1.91 156.50-0.99L156.50-0.99L156.50-0.99Q154.84-0.06 152.99 0.39L152.99 0.39L152.99 0.39Q151.13 0.84 149.34 0.84L149.34 0.84L149.34 0.84Q146.84 0.84 144.88 0.06L144.88 0.06L144.88 0.06Q142.93-0.72 141.56-2.05L141.56-2.05L141.56-2.05Q140.20-3.38 139.42-5.17L139.42-5.17L139.42-5.17Q138.65-6.95 138.54-8.96L138.54-8.96L138.54-8.96Q138.54-12.03 139.56-14.21L139.56-14.21L139.56-14.21Q140.59-16.39 142.35-17.75L142.35-17.75L142.35-17.75Q144.12-19.12 146.48-19.76L146.48-19.76L146.48-19.76Q148.85-20.39 151.50-20.39L151.50-20.39L151.50-20.39Q152.48-20.39 153.53-20.25L153.53-20.25L153.53-20.25Q154.57-20.12 155.57-19.77L155.57-19.77L155.57-19.77Q156.56-19.41 157.47-18.80L157.47-18.80L157.47-18.80Q158.38-18.18 159.11-17.22L159.11-17.22L159.11-17.22Q159.84-16.25 160.35-14.90L160.35-14.90L160.35-14.90Q160.86-13.55 161.05-11.72L161.05-11.72L145.02-8.85L145.02-8.85Q145.18-7.50 145.58-6.21L145.58-6.21L145.58-6.21Q145.98-4.92 146.66-3.94L146.66-3.94L146.66-3.94Q147.34-2.95 148.35-2.37L148.35-2.37L148.35-2.37Q149.36-1.80 150.74-1.84L150.74-1.84L150.74-1.84Q152.25-2.01 153.40-2.73L153.40-2.73L153.40-2.73Q153.89-3.05 154.34-3.51L154.34-3.51L154.34-3.51Q154.79-3.96 155.12-4.61L155.12-4.61L155.12-4.61Q155.45-5.25 155.61-6.11L155.61-6.11L155.61-6.11Q155.76-6.97 155.66-8.09L155.66-8.09ZM144.86-11.33L154.14-12.97L154.14-12.97Q154.06-13.89 153.81-14.57L153.81-14.57L153.81-14.57Q153.55-15.25 153.17-15.74L153.17-15.74L153.17-15.74Q152.79-16.23 152.33-16.55L152.33-16.55L152.33-16.55Q151.88-16.88 151.41-17.07L151.41-17.07L151.41-17.07Q150.31-17.52 148.95-17.48L148.95-17.48L148.95-17.48Q147.66-17.32 146.86-16.75L146.86-16.75L146.86-16.75Q146.05-16.17 145.62-15.32L145.62-15.32L145.62-15.32Q145.18-14.47 145.02-13.44L145.02-13.44L145.02-13.44Q144.86-12.40 144.86-11.33L144.86-11.33ZM173.20-4.39L179.22-4.47L179.22-1.19L164.18 0.72L163.61-4.28L168.61-4.32L168.85-15.16L162.77-15.61L162.77-18.93L175.41-20.04L174.77-15.68L174.77-15.68Q175.20-16.13 175.90-16.73L175.90-16.73L175.90-16.73Q176.60-17.32 177.45-17.94L177.45-17.94L177.45-17.94Q178.30-18.55 179.27-19.18L179.27-19.18L179.27-19.18Q180.23-19.80 181.21-20.32L181.21-20.32L181.21-20.32Q182.19-20.84 183.13-21.22L183.13-21.22L183.13-21.22Q184.08-21.60 184.88-21.76L184.88-21.76L185.41-15.27L185.41-15.27Q182.60-15.27 180.58-14.79L180.58-14.79L180.58-14.79Q178.55-14.30 177.21-13.71L177.21-13.71L177.21-13.71Q175.64-13.03 174.57-12.17L174.57-12.17L173.20-4.39ZM204.51-20.80L208.59-20L206.66-13.36L206.66-13.36Q205.70-13.87 204.53-14.36L204.53-14.36L204.53-14.36Q203.36-14.84 202.12-15.21L202.12-15.21L202.12-15.21Q200.88-15.59 199.64-15.81L199.64-15.81L199.64-15.81Q198.40-16.04 197.30-16.04L197.30-16.04L197.30-16.04Q195.78-16.04 194.82-15.58L194.82-15.58L194.82-15.58Q193.87-15.12 193.87-14.24L193.87-14.24L193.87-14.24Q193.87-13.67 194.30-13.27L194.30-13.27L194.30-13.27Q194.73-12.87 195.60-12.52L195.60-12.52L195.60-12.52Q196.46-12.17 197.78-11.84L197.78-11.84L197.78-11.84Q199.10-11.50 200.86-11.07L200.86-11.07L200.86-11.07Q202.44-10.70 203.83-10.24L203.83-10.24L203.83-10.24Q205.21-9.79 206.23-9.08L206.23-9.08L206.23-9.08Q207.25-8.38 207.83-7.36L207.83-7.36L207.83-7.36Q208.42-6.35 208.42-4.88L208.42-4.88L208.42-4.88Q208.42-3.32 207.76-2.25L207.76-2.25L207.76-2.25Q207.11-1.17 205.94-0.50L205.94-0.50L205.94-0.50Q204.77 0.18 203.17 0.47L203.17 0.47L203.17 0.47Q201.58 0.76 199.71 0.76L199.71 0.76L199.71 0.76Q197.42 0.76 195.79 0.41L195.79 0.41L195.79 0.41Q194.16 0.06 193.10-0.36L193.10-0.36L193.10-0.36Q192.03-0.78 191.47-1.13L191.47-1.13L191.47-1.13Q190.92-1.48 190.78-1.48L190.78-1.48L190.39 1.68L186.27 0.27L188.50-6.07L188.50-6.07Q189.10-5.68 189.96-5.25L189.96-5.25L189.96-5.25Q190.82-4.82 191.80-4.39L191.80-4.39L191.80-4.39Q192.77-3.96 193.84-3.56L193.84-3.56L193.84-3.56Q194.90-3.16 195.94-2.86L195.94-2.86L195.94-2.86Q196.97-2.56 197.91-2.38L197.91-2.38L197.91-2.38Q198.85-2.21 199.59-2.21L199.59-2.21L199.59-2.21Q199.94-2.21 200.37-2.27L200.37-2.27L200.37-2.27Q200.80-2.32 201.18-2.49L201.18-2.49L201.18-2.49Q201.56-2.66 201.82-2.96L201.82-2.96L201.82-2.96Q202.07-3.26 202.07-3.77L202.07-3.77L202.07-3.77Q202.07-4.39 201.62-4.85L201.62-4.85L201.62-4.85Q201.17-5.31 200.53-5.64L200.53-5.64L200.53-5.64Q199.88-5.98 199.15-6.20L199.15-6.20L199.15-6.20Q198.42-6.43 197.83-6.60L197.83-6.60L197.83-6.60Q196.89-6.86 195.76-7.20L195.76-7.20L195.76-7.20Q194.63-7.54 193.46-8.00L193.46-8.00L193.46-8.00Q192.29-8.46 191.19-9.04L191.19-9.04L191.19-9.04Q190.10-9.63 189.24-10.39L189.24-10.39L189.24-10.39Q188.38-11.15 187.86-12.09L187.86-12.09L187.86-12.09Q187.34-13.03 187.34-14.20L187.34-14.20L187.34-14.20Q187.34-15.39 187.91-16.46L187.91-16.46L187.91-16.46Q188.48-17.52 189.56-18.32L189.56-18.32L189.56-18.32Q190.64-19.12 192.24-19.60L192.24-19.60L192.24-19.60Q193.83-20.08 195.86-20.08L195.86-20.08L195.86-20.08Q197.77-20.08 199.37-19.71L199.37-19.71L199.37-19.71Q200.96-19.34 202.13-18.89L202.13-18.89L202.13-18.89Q203.50-18.38 204.59-17.71L204.59-17.71L204.51-20.80Z" fill="#ff0099"></path></g></g><style>text {
  font-size: 64px;
  font-family: Arial Black;
  dominant-baseline: central;
  text-anchor: middle;
}</style></svg>